<mxfile host="app.diagrams.net" modified="2023-11-02T11:04:04.859Z" agent="Mozilla/5.0 (Windows NT 10.0; Win64; x64) AppleWebKit/537.36 (KHTML, like Gecko) Chrome/118.0.0.0 Safari/537.36 Edg/118.0.2088.76" etag="g2K9O6ai6kliAQLu-Op6" version="22.0.8" type="github" pages="2">
  <diagram id="Sejshk8urJBB3DEKOXa6" name="Page-1">
    <mxGraphModel dx="829" dy="481" grid="1" gridSize="10" guides="1" tooltips="1" connect="1" arrows="1" fold="1" page="1" pageScale="1" pageWidth="850" pageHeight="1100" math="0" shadow="0">
      <root>
        <mxCell id="0" />
        <mxCell id="1" parent="0" />
        <mxCell id="C0eixMdY0BF7NA55F8Ps-3" value="Compute&#xa;Engine" style="sketch=0;html=1;fillColor=#5184F3;strokeColor=none;verticalAlign=top;labelPosition=center;verticalLabelPosition=bottom;align=center;spacingTop=-6;fontSize=11;fontStyle=1;fontColor=#999999;shape=mxgraph.gcp2.hexIcon;prIcon=compute_engine" parent="1" vertex="1">
          <mxGeometry x="324" width="66" height="58.5" as="geometry" />
        </mxCell>
        <mxCell id="C0eixMdY0BF7NA55F8Ps-7" value="" style="rounded=0;whiteSpace=wrap;html=1;fillColor=#f5f5f5;strokeColor=#666666;fontColor=#333333;" parent="1" vertex="1">
          <mxGeometry x="20" y="100" width="740" height="800" as="geometry" />
        </mxCell>
        <mxCell id="C0eixMdY0BF7NA55F8Ps-8" value="GCP Self-Heal Framework" style="text;html=1;strokeColor=none;fillColor=none;align=center;verticalAlign=middle;whiteSpace=wrap;rounded=0;" parent="1" vertex="1">
          <mxGeometry x="278" y="120" width="220" height="20" as="geometry" />
        </mxCell>
        <mxCell id="C0eixMdY0BF7NA55F8Ps-9" value="" style="endArrow=none;html=1;rounded=0;exitX=-0.001;exitY=0.202;exitDx=0;exitDy=0;exitPerimeter=0;" parent="1" edge="1" source="C0eixMdY0BF7NA55F8Ps-7">
          <mxGeometry width="50" height="50" relative="1" as="geometry">
            <mxPoint x="40" y="260" as="sourcePoint" />
            <mxPoint x="760" y="260" as="targetPoint" />
            <Array as="points">
              <mxPoint x="400" y="260" />
            </Array>
          </mxGeometry>
        </mxCell>
        <mxCell id="C0eixMdY0BF7NA55F8Ps-10" value="Detection" style="text;html=1;strokeColor=none;fillColor=none;align=center;verticalAlign=middle;whiteSpace=wrap;rounded=0;" parent="1" vertex="1">
          <mxGeometry x="40" y="180" width="60" height="30" as="geometry" />
        </mxCell>
        <mxCell id="C0eixMdY0BF7NA55F8Ps-12" value="Monitoring" style="sketch=0;html=1;fillColor=#5184F3;strokeColor=none;verticalAlign=top;labelPosition=center;verticalLabelPosition=bottom;align=center;spacingTop=-6;fontSize=11;fontStyle=1;fontColor=#999999;shape=mxgraph.gcp2.hexIcon;prIcon=cloud_deployment_manager" parent="1" vertex="1">
          <mxGeometry x="570" y="180" width="66" height="58.5" as="geometry" />
        </mxCell>
        <mxCell id="alhN2l8rT6EYUOoOsXHT-7" style="edgeStyle=orthogonalEdgeStyle;rounded=0;orthogonalLoop=1;jettySize=auto;html=1;exitX=0.5;exitY=0.84;exitDx=0;exitDy=0;exitPerimeter=0;entryX=0.5;entryY=0.16;entryDx=0;entryDy=0;entryPerimeter=0;" parent="1" source="C0eixMdY0BF7NA55F8Ps-19" target="C0eixMdY0BF7NA55F8Ps-33" edge="1">
          <mxGeometry relative="1" as="geometry">
            <Array as="points">
              <mxPoint x="173" y="460" />
              <mxPoint x="340" y="460" />
              <mxPoint x="340" y="310" />
              <mxPoint x="478" y="310" />
            </Array>
          </mxGeometry>
        </mxCell>
        <mxCell id="C0eixMdY0BF7NA55F8Ps-19" value="Cloud&#xa;Functions" style="sketch=0;html=1;fillColor=#5184F3;strokeColor=none;verticalAlign=top;labelPosition=center;verticalLabelPosition=bottom;align=center;spacingTop=-6;fontSize=11;fontStyle=1;fontColor=#999999;shape=mxgraph.gcp2.hexIcon;prIcon=cloud_functions" parent="1" vertex="1">
          <mxGeometry x="140" y="380" width="66" height="58.5" as="geometry" />
        </mxCell>
        <mxCell id="C0eixMdY0BF7NA55F8Ps-20" value="Diagnosis" style="text;html=1;strokeColor=none;fillColor=none;align=center;verticalAlign=middle;whiteSpace=wrap;rounded=0;" parent="1" vertex="1">
          <mxGeometry x="40" y="328.5" width="60" height="30" as="geometry" />
        </mxCell>
        <mxCell id="C0eixMdY0BF7NA55F8Ps-21" value="" style="endArrow=none;html=1;rounded=0;exitX=-0.002;exitY=0.061;exitDx=0;exitDy=0;exitPerimeter=0;" parent="1" source="C0eixMdY0BF7NA55F8Ps-7" edge="1">
          <mxGeometry width="50" height="50" relative="1" as="geometry">
            <mxPoint x="40" y="150" as="sourcePoint" />
            <mxPoint x="760" y="150" as="targetPoint" />
            <Array as="points">
              <mxPoint x="170" y="150" />
            </Array>
          </mxGeometry>
        </mxCell>
        <mxCell id="C0eixMdY0BF7NA55F8Ps-22" value="" style="endArrow=none;html=1;rounded=0;exitX=-0.001;exitY=0.469;exitDx=0;exitDy=0;exitPerimeter=0;" parent="1" source="C0eixMdY0BF7NA55F8Ps-7" edge="1">
          <mxGeometry width="50" height="50" relative="1" as="geometry">
            <mxPoint x="400" y="390" as="sourcePoint" />
            <mxPoint x="760" y="470" as="targetPoint" />
          </mxGeometry>
        </mxCell>
        <mxCell id="C0eixMdY0BF7NA55F8Ps-23" value="" style="endArrow=none;html=1;rounded=0;exitX=-0.006;exitY=0.614;exitDx=0;exitDy=0;exitPerimeter=0;entryX=0.999;entryY=0.598;entryDx=0;entryDy=0;entryPerimeter=0;" parent="1" source="C0eixMdY0BF7NA55F8Ps-7" target="C0eixMdY0BF7NA55F8Ps-7" edge="1">
          <mxGeometry width="50" height="50" relative="1" as="geometry">
            <mxPoint x="400" y="580" as="sourcePoint" />
            <mxPoint x="450" y="530" as="targetPoint" />
          </mxGeometry>
        </mxCell>
        <mxCell id="C0eixMdY0BF7NA55F8Ps-24" value="" style="endArrow=none;html=1;rounded=0;exitX=0;exitY=0.75;exitDx=0;exitDy=0;entryX=0.996;entryY=0.741;entryDx=0;entryDy=0;entryPerimeter=0;" parent="1" source="C0eixMdY0BF7NA55F8Ps-7" target="C0eixMdY0BF7NA55F8Ps-7" edge="1">
          <mxGeometry width="50" height="50" relative="1" as="geometry">
            <mxPoint x="400" y="730" as="sourcePoint" />
            <mxPoint x="450" y="680" as="targetPoint" />
          </mxGeometry>
        </mxCell>
        <mxCell id="C0eixMdY0BF7NA55F8Ps-25" value="" style="endArrow=none;html=1;rounded=0;entryX=0.142;entryY=1.001;entryDx=0;entryDy=0;entryPerimeter=0;" parent="1" edge="1" target="C0eixMdY0BF7NA55F8Ps-7">
          <mxGeometry width="50" height="50" relative="1" as="geometry">
            <mxPoint x="100" y="150" as="sourcePoint" />
            <mxPoint x="120" y="900" as="targetPoint" />
            <Array as="points">
              <mxPoint x="120" y="150" />
            </Array>
          </mxGeometry>
        </mxCell>
        <mxCell id="C0eixMdY0BF7NA55F8Ps-26" value="Remidiation" style="text;html=1;strokeColor=none;fillColor=none;align=center;verticalAlign=middle;whiteSpace=wrap;rounded=0;" parent="1" vertex="1">
          <mxGeometry x="40" y="500" width="60" height="30" as="geometry" />
        </mxCell>
        <mxCell id="C0eixMdY0BF7NA55F8Ps-27" value="Notification" style="text;html=1;strokeColor=none;fillColor=none;align=center;verticalAlign=middle;whiteSpace=wrap;rounded=0;" parent="1" vertex="1">
          <mxGeometry x="40" y="620" width="60" height="30" as="geometry" />
        </mxCell>
        <mxCell id="C0eixMdY0BF7NA55F8Ps-28" value="Reporting" style="text;html=1;strokeColor=none;fillColor=none;align=center;verticalAlign=middle;whiteSpace=wrap;rounded=0;" parent="1" vertex="1">
          <mxGeometry x="50" y="770" width="60" height="30" as="geometry" />
        </mxCell>
        <mxCell id="C0eixMdY0BF7NA55F8Ps-31" value="BigQuery" style="sketch=0;html=1;fillColor=#5184F3;strokeColor=none;verticalAlign=top;labelPosition=center;verticalLabelPosition=bottom;align=center;spacingTop=-6;fontSize=11;fontStyle=1;fontColor=#999999;shape=mxgraph.gcp2.hexIcon;prIcon=bigquery" parent="1" vertex="1">
          <mxGeometry x="172" y="810" width="66" height="58.5" as="geometry" />
        </mxCell>
        <mxCell id="C0eixMdY0BF7NA55F8Ps-32" value="" style="sketch=0;html=1;aspect=fixed;strokeColor=none;shadow=0;align=center;verticalAlign=top;fillColor=#3B8DF1;shape=mxgraph.gcp2.cloud_monitoring" parent="1" vertex="1">
          <mxGeometry x="160" y="710" width="90" height="100" as="geometry" />
        </mxCell>
        <mxCell id="alhN2l8rT6EYUOoOsXHT-5" style="edgeStyle=orthogonalEdgeStyle;rounded=0;orthogonalLoop=1;jettySize=auto;html=1;exitX=0.5;exitY=0.84;exitDx=0;exitDy=0;exitPerimeter=0;" parent="1" source="C0eixMdY0BF7NA55F8Ps-33" target="C0eixMdY0BF7NA55F8Ps-37" edge="1">
          <mxGeometry relative="1" as="geometry" />
        </mxCell>
        <mxCell id="C0eixMdY0BF7NA55F8Ps-33" value="Compute&#xa;Engine" style="sketch=0;html=1;fillColor=#5184F3;strokeColor=none;verticalAlign=top;labelPosition=center;verticalLabelPosition=bottom;align=center;spacingTop=-6;fontSize=11;fontStyle=1;fontColor=#999999;shape=mxgraph.gcp2.hexIcon;prIcon=compute_engine" parent="1" vertex="1">
          <mxGeometry x="445" y="339.25" width="66" height="58.5" as="geometry" />
        </mxCell>
        <mxCell id="alhN2l8rT6EYUOoOsXHT-13" style="edgeStyle=orthogonalEdgeStyle;rounded=0;orthogonalLoop=1;jettySize=auto;html=1;exitX=0.5;exitY=1;exitDx=0;exitDy=0;entryX=0.5;entryY=0.16;entryDx=0;entryDy=0;entryPerimeter=0;" parent="1" source="C0eixMdY0BF7NA55F8Ps-37" target="alhN2l8rT6EYUOoOsXHT-10" edge="1">
          <mxGeometry relative="1" as="geometry" />
        </mxCell>
        <mxCell id="C0eixMdY0BF7NA55F8Ps-37" value="" style="shape=image;html=1;verticalAlign=top;verticalLabelPosition=bottom;labelBackgroundColor=#ffffff;imageAspect=0;aspect=fixed;image=https://cdn0.iconfinder.com/data/icons/shape-1/20/diamond-128.png" parent="1" vertex="1">
          <mxGeometry x="375" y="470" width="70" height="70" as="geometry" />
        </mxCell>
        <mxCell id="C0eixMdY0BF7NA55F8Ps-38" style="edgeStyle=orthogonalEdgeStyle;rounded=0;orthogonalLoop=1;jettySize=auto;html=1;entryX=0.5;entryY=0.16;entryDx=0;entryDy=0;entryPerimeter=0;" parent="1" edge="1">
          <mxGeometry relative="1" as="geometry">
            <mxPoint x="233" y="615.1099999999999" as="targetPoint" />
            <mxPoint x="380" y="505" as="sourcePoint" />
          </mxGeometry>
        </mxCell>
        <mxCell id="C0eixMdY0BF7NA55F8Ps-39" value="Resolvable" style="text;html=1;strokeColor=none;fillColor=none;align=center;verticalAlign=middle;whiteSpace=wrap;rounded=0;" parent="1" vertex="1">
          <mxGeometry x="385" y="490" width="60" height="30" as="geometry" />
        </mxCell>
        <mxCell id="C0eixMdY0BF7NA55F8Ps-40" style="edgeStyle=orthogonalEdgeStyle;rounded=0;orthogonalLoop=1;jettySize=auto;html=1;exitX=0.5;exitY=0.84;exitDx=0;exitDy=0;exitPerimeter=0;" parent="1" edge="1">
          <mxGeometry relative="1" as="geometry">
            <mxPoint x="230" y="570" as="targetPoint" />
            <Array as="points">
              <mxPoint x="408" y="640" />
              <mxPoint x="303" y="640" />
              <mxPoint x="303" y="570" />
            </Array>
            <mxPoint x="408" y="619.1400000000001" as="sourcePoint" />
          </mxGeometry>
        </mxCell>
        <mxCell id="C0eixMdY0BF7NA55F8Ps-42" value="yes" style="text;html=1;strokeColor=none;fillColor=none;align=center;verticalAlign=middle;whiteSpace=wrap;rounded=0;" parent="1" vertex="1">
          <mxGeometry x="414" y="540" width="60" height="30" as="geometry" />
        </mxCell>
        <mxCell id="C0eixMdY0BF7NA55F8Ps-43" value="No" style="text;html=1;strokeColor=none;fillColor=none;align=center;verticalAlign=middle;whiteSpace=wrap;rounded=0;" parent="1" vertex="1">
          <mxGeometry x="332" y="480" width="60" height="30" as="geometry" />
        </mxCell>
        <mxCell id="SFfGTCYrL1I7Gm_Wou7T-6" value="uptime checks" style="text;html=1;strokeColor=none;fillColor=none;align=center;verticalAlign=middle;whiteSpace=wrap;rounded=0;" parent="1" vertex="1">
          <mxGeometry x="620" y="160" width="40" height="20" as="geometry" />
        </mxCell>
        <mxCell id="SFfGTCYrL1I7Gm_Wou7T-10" style="edgeStyle=orthogonalEdgeStyle;rounded=0;orthogonalLoop=1;jettySize=auto;html=1;exitX=0.5;exitY=0.84;exitDx=0;exitDy=0;exitPerimeter=0;entryX=0.5;entryY=0.16;entryDx=0;entryDy=0;entryPerimeter=0;" parent="1" source="SFfGTCYrL1I7Gm_Wou7T-7" target="C0eixMdY0BF7NA55F8Ps-19" edge="1">
          <mxGeometry relative="1" as="geometry" />
        </mxCell>
        <mxCell id="SFfGTCYrL1I7Gm_Wou7T-7" value="Cloud&#xa;Pub/Sub" style="html=1;fillColor=#5184F3;strokeColor=none;verticalAlign=top;labelPosition=center;verticalLabelPosition=bottom;align=center;spacingTop=-6;fontSize=11;fontStyle=1;fontColor=#999999;shape=mxgraph.gcp2.hexIcon;prIcon=cloud_pubsub" parent="1" vertex="1">
          <mxGeometry x="140" y="270" width="66" height="58.5" as="geometry" />
        </mxCell>
        <mxCell id="SFfGTCYrL1I7Gm_Wou7T-9" value="Alert Notification" style="text;html=1;strokeColor=none;fillColor=none;align=center;verticalAlign=middle;whiteSpace=wrap;rounded=0;" parent="1" vertex="1">
          <mxGeometry x="130" y="190" width="50" height="60" as="geometry" />
        </mxCell>
        <mxCell id="alhN2l8rT6EYUOoOsXHT-6" value="If vm is stop" style="text;html=1;strokeColor=none;fillColor=none;align=center;verticalAlign=middle;whiteSpace=wrap;rounded=0;" parent="1" vertex="1">
          <mxGeometry x="434" y="440" width="40" height="20" as="geometry" />
        </mxCell>
        <mxCell id="alhN2l8rT6EYUOoOsXHT-10" value="Cloud&#xa;Pub/Sub" style="html=1;fillColor=#5184F3;strokeColor=none;verticalAlign=top;labelPosition=center;verticalLabelPosition=bottom;align=center;spacingTop=-6;fontSize=11;fontStyle=1;fontColor=#999999;shape=mxgraph.gcp2.hexIcon;prIcon=cloud_pubsub" parent="1" vertex="1">
          <mxGeometry x="375" y="580" width="66" height="58.5" as="geometry" />
        </mxCell>
        <mxCell id="alhN2l8rT6EYUOoOsXHT-15" style="edgeStyle=orthogonalEdgeStyle;rounded=0;orthogonalLoop=1;jettySize=auto;html=1;exitX=0.5;exitY=0.84;exitDx=0;exitDy=0;exitPerimeter=0;entryX=0.5;entryY=0.84;entryDx=0;entryDy=0;entryPerimeter=0;" parent="1" source="alhN2l8rT6EYUOoOsXHT-14" target="C0eixMdY0BF7NA55F8Ps-31" edge="1">
          <mxGeometry relative="1" as="geometry">
            <Array as="points">
              <mxPoint x="233" y="680" />
              <mxPoint x="430" y="680" />
              <mxPoint x="430" y="890" />
              <mxPoint x="205" y="890" />
            </Array>
          </mxGeometry>
        </mxCell>
        <mxCell id="alhN2l8rT6EYUOoOsXHT-14" value="Cloud&#xa;Functions" style="html=1;fillColor=#5184F3;strokeColor=none;verticalAlign=top;labelPosition=center;verticalLabelPosition=bottom;align=center;spacingTop=-6;fontSize=11;fontStyle=1;fontColor=#999999;shape=mxgraph.gcp2.hexIcon;prIcon=cloud_functions" parent="1" vertex="1">
          <mxGeometry x="200" y="605.75" width="66" height="58.5" as="geometry" />
        </mxCell>
        <mxCell id="alhN2l8rT6EYUOoOsXHT-16" value="write the files to bigquery/cloud storage" style="text;html=1;strokeColor=none;fillColor=none;align=center;verticalAlign=middle;whiteSpace=wrap;rounded=0;" parent="1" vertex="1">
          <mxGeometry x="458" y="790" width="40" height="20" as="geometry" />
        </mxCell>
        <mxCell id="gBji9ElXWYjklYyaYFH1-1" value="start the vm" style="text;html=1;strokeColor=none;fillColor=none;align=center;verticalAlign=middle;whiteSpace=wrap;rounded=0;" parent="1" vertex="1">
          <mxGeometry x="260" y="650" width="40" height="20" as="geometry" />
        </mxCell>
        <mxCell id="gBji9ElXWYjklYyaYFH1-2" value="Event Trigger" style="text;html=1;strokeColor=none;fillColor=none;align=center;verticalAlign=middle;whiteSpace=wrap;rounded=0;" parent="1" vertex="1">
          <mxGeometry x="180" y="358.5" width="40" height="20" as="geometry" />
        </mxCell>
        <mxCell id="gBji9ElXWYjklYyaYFH1-5" value="event trigger" style="text;html=1;strokeColor=none;fillColor=none;align=center;verticalAlign=middle;whiteSpace=wrap;rounded=0;" parent="1" vertex="1">
          <mxGeometry x="324" y="610" width="40" height="20" as="geometry" />
        </mxCell>
        <mxCell id="gBji9ElXWYjklYyaYFH1-11" value="" style="endArrow=none;html=1;exitX=0.442;exitY=1.117;exitDx=0;exitDy=0;exitPerimeter=0;" parent="1" edge="1">
          <mxGeometry width="50" height="50" relative="1" as="geometry">
            <mxPoint x="337.6199999999999" y="816.435" as="sourcePoint" />
            <mxPoint x="339" y="890" as="targetPoint" />
            <Array as="points" />
          </mxGeometry>
        </mxCell>
        <mxCell id="gBji9ElXWYjklYyaYFH1-12" value="update the trigger" style="text;html=1;strokeColor=none;fillColor=none;align=center;verticalAlign=middle;whiteSpace=wrap;rounded=0;" parent="1" vertex="1">
          <mxGeometry x="240" y="430" width="70" height="20" as="geometry" />
        </mxCell>
        <mxCell id="uSAdy0SuXjFTcVnO3uck-2" value="Cloud&#xa;Pub/Sub" style="html=1;fillColor=#5184F3;strokeColor=none;verticalAlign=top;labelPosition=center;verticalLabelPosition=bottom;align=center;spacingTop=-6;fontSize=11;fontStyle=1;fontColor=#999999;shape=mxgraph.gcp2.hexIcon;prIcon=cloud_pubsub" parent="1" vertex="1">
          <mxGeometry x="238" y="471.5" width="66" height="58.5" as="geometry" />
        </mxCell>
        <mxCell id="p46L_yPWky1bgS1l5ttr-1" value="up time check" style="rounded=0;whiteSpace=wrap;html=1;fillColor=#dae8fc;strokeColor=#6c8ebf;" parent="1" vertex="1">
          <mxGeometry x="356" y="180" width="80" height="40" as="geometry" />
        </mxCell>
        <mxCell id="p46L_yPWky1bgS1l5ttr-2" style="edgeStyle=orthogonalEdgeStyle;rounded=0;orthogonalLoop=1;jettySize=auto;html=1;exitX=0.175;exitY=0.5;exitDx=0;exitDy=0;exitPerimeter=0;entryX=1;entryY=0.5;entryDx=0;entryDy=0;" parent="1" source="C0eixMdY0BF7NA55F8Ps-12" target="p46L_yPWky1bgS1l5ttr-1" edge="1">
          <mxGeometry relative="1" as="geometry">
            <mxPoint x="581.55" y="209.25" as="sourcePoint" />
            <mxPoint x="460" y="203" as="targetPoint" />
          </mxGeometry>
        </mxCell>
        <mxCell id="p46L_yPWky1bgS1l5ttr-3" value="if check fails&lt;br&gt;" style="text;html=1;strokeColor=none;fillColor=none;align=center;verticalAlign=middle;whiteSpace=wrap;rounded=0;" parent="1" vertex="1">
          <mxGeometry x="266" y="180" width="80" height="20" as="geometry" />
        </mxCell>
        <mxCell id="XtnhgM4R88zoDIV_sOlp-3" value="Cloud&#xa;Pub/Sub" style="html=1;fillColor=#5184F3;strokeColor=none;verticalAlign=top;labelPosition=center;verticalLabelPosition=bottom;align=center;spacingTop=-6;fontSize=11;fontStyle=1;fontColor=#999999;shape=mxgraph.gcp2.hexIcon;prIcon=cloud_pubsub" parent="1" vertex="1">
          <mxGeometry x="304" y="770" width="66" height="58.5" as="geometry" />
        </mxCell>
        <mxCell id="itvNGDOsMl_ElffR8w5b-8" style="edgeStyle=orthogonalEdgeStyle;rounded=0;orthogonalLoop=1;jettySize=auto;html=1;exitX=0.5;exitY=0.84;exitDx=0;exitDy=0;exitPerimeter=0;entryX=0.5;entryY=0.16;entryDx=0;entryDy=0;entryPerimeter=0;" edge="1" parent="1" source="C0eixMdY0BF7NA55F8Ps-3" target="C0eixMdY0BF7NA55F8Ps-12">
          <mxGeometry relative="1" as="geometry">
            <Array as="points">
              <mxPoint x="357" y="60" />
              <mxPoint x="603" y="60" />
            </Array>
          </mxGeometry>
        </mxCell>
        <mxCell id="itvNGDOsMl_ElffR8w5b-11" style="edgeStyle=orthogonalEdgeStyle;rounded=0;orthogonalLoop=1;jettySize=auto;html=1;exitX=0;exitY=0.5;exitDx=0;exitDy=0;entryX=0.5;entryY=0.16;entryDx=0;entryDy=0;entryPerimeter=0;" edge="1" parent="1" source="p46L_yPWky1bgS1l5ttr-1" target="SFfGTCYrL1I7Gm_Wou7T-7">
          <mxGeometry relative="1" as="geometry" />
        </mxCell>
      </root>
    </mxGraphModel>
  </diagram>
  <diagram id="y_idzMeUOXFJQnMszEWN" name="Page-2">
    <mxGraphModel dx="768" dy="482" grid="1" gridSize="10" guides="1" tooltips="1" connect="1" arrows="1" fold="1" page="1" pageScale="1" pageWidth="850" pageHeight="1100" math="0" shadow="0">
      <root>
        <mxCell id="PO0GNQ_D5_PwXnVpxiBi-0" />
        <mxCell id="PO0GNQ_D5_PwXnVpxiBi-1" parent="PO0GNQ_D5_PwXnVpxiBi-0" />
      </root>
    </mxGraphModel>
  </diagram>
</mxfile>
